{"title":"The.Rite.2011.PPVRIP XviD Feel-Free","uid":6308783,"size":909611494,"categoryP":"video","categoryS":"movies","magnet":"?xt=urn:btih:fd15d2def49277917b5047511733359589d089d6&amp;dn=The.Rite.2011.PPVRIP+XviD+Feel-Free&amp;tr=udp%3A%2F%2Ftracker.openbittorrent.com%3A80&amp;tr=udp%3A%2F%2Fopen.demonii.com%3A1337&amp;tr=udp%3A%2F%2Ftracker.coppersurfer.tk%3A6969&amp;tr=udp%3A%2F%2Fexodus.desync.com%3A6969","seeders":0,"leechers":0,"uploader":"qwersd","files":10,"time":1302454688,"description":"Genre:Drama | Horror | Thriller \nLanguage:English\nIMDb:http://www.imdb.com/title/tt1161864/\nSource: Thanks!\nSubtitles:Romana\n\n\nFormat : AVI\nFormat/Info : Audio Video Interleave\nFile size : 866 MiB\nDuration : 1h 52mn\nOverall bit rate : 1 073 Kbps\n\n\nVideo\nID : 0\nFormat : MPEG-4 Visual\nFormat profile : Advanced Simple@L5\nFormat settings, BVOP : Yes\nFormat settings, QPel : No\nFormat settings, GMC : No warppoints\nFormat settings, Matrix : Default (H.263)\nMuxing mode : Packed bitstream\nCodec ID : XVID\nCodec ID/Hint : XviD\nDuration : 1h 52mn\nBit rate : 931 Kbps\nWidth : 640 pixels\nHeight : 480 pixels\nDisplay aspect ratio : 4:3\nFrame rate : 29.970 fps\nColor space : YUV\nChroma subsampling : 4:2:0\nBit depth : 8 bits\nScan type : Progressive\nBits/(Pixel*Frame) : 0.101\nStream size : 752 MiB (87%)\nWriting library : XviD 1.2.1 (UTC 2008-12-04)\n\nAudio\nID : 1\nFormat : MPEG Audio\nFormat version : Version 1\nFormat profile : Layer 3\nMode : Joint stereo\nMode extension : MS Stereo\nCodec ID : 55\nCodec ID/Hint : MP3\nDuration : 1h 52mn\nBit rate mode : Constant\nBit rate : 128 Kbps\nChannel(s) : 2 channels\nSampling rate : 44.1 KHz\nStream size : 103 MiB (12%)\nAlignment : Aligned on interleaves\nInterleave, duration : 26 ms (0.78 video frame)\nInterleave, preload duration : 522 ms\nWriting library : LAME3.98.2\n\n\nPlot:\nAn American seminary student travels to Italy to take an exorcism course. \n\nGreets:\n\nINK,CRYS,IMAGINE,LKRG,FXG,3Li,FLAWL3SS,TA,iLLUSiON,ViSiON,DTRG SAFCuk009,LU,TheFalcon007,MYSTiC,PrisM,Noir,WBZ,LAP,Rx,Kingdom,SAFCuk009+Fabreezy,HDLiTE,TWiZTED,ExtraTorrentRG.ELEKTRI4KA,MAGNAT,CM8\nAnd to all the other p2p grps past and present ","torrent":{"xt":"urn:btih:fd15d2def49277917b5047511733359589d089d6","amp;dn":"The.Rite.2011.PPVRIP+XviD+Feel-Free","amp;tr":["udp%3A%2F%2Ftracker.openbittorrent.com%3A80","udp%3A%2F%2Fopen.demonii.com%3A1337","udp%3A%2F%2Ftracker.coppersurfer.tk%3A6969","udp%3A%2F%2Fexodus.desync.com%3A6969"],"infoHash":"fd15d2def49277917b5047511733359589d089d6","infoHashBuffer":{"type":"Buffer","data":[253,21,210,222,244,146,119,145,123,80,71,81,23,51,53,149,137,208,137,214]},"announce":[],"urlList":[]}}